<svg width="24" height="18" viewBox="0 0 24 18" fill="none" xmlns="http://www.w3.org/2000/svg">
<path d="M22.6467 8.50224C21.6525 4.0074 20.1563 1.60834 17.9367 0.953023C17.4702 0.81617 16.9862 0.747801 16.5 0.750054C15.8573 0.750054 15.2977 0.906616 14.7056 1.07255C13.9922 1.27271 13.1817 1.50005 12 1.50005C10.8183 1.50005 10.0073 1.27318 9.2925 1.07302C8.7 0.906616 8.14078 0.750054 7.5 0.750054C6.99723 0.748311 6.49666 0.816463 6.01266 0.952554C3.80485 1.60505 2.30953 4.00318 1.30078 8.49943C0.216095 13.3379 0.750001 16.3927 2.79797 17.1015C3.0787 17.2004 3.37407 17.2514 3.67172 17.2524C5.07469 17.2524 6.19969 16.0838 6.96844 15.1271C7.83703 14.0443 8.85375 13.4949 12 13.4949C14.8102 13.4949 15.9731 13.876 16.9777 15.1271C17.6091 15.9136 18.2058 16.464 18.8011 16.8104C19.5928 17.2707 20.3841 17.3729 21.1523 17.109C22.3627 16.696 23.0564 15.6043 23.2148 13.8633C23.3353 12.5283 23.1497 10.7747 22.6467 8.50224ZM9.75 8.25005H8.25V9.75005C8.25 9.94897 8.17098 10.1397 8.03033 10.2804C7.88968 10.421 7.69891 10.5001 7.5 10.5001C7.30109 10.5001 7.11032 10.421 6.96967 10.2804C6.82902 10.1397 6.75 9.94897 6.75 9.75005V8.25005H5.25C5.05109 8.25005 4.86032 8.17104 4.71967 8.03038C4.57902 7.88973 4.5 7.69897 4.5 7.50005C4.5 7.30114 4.57902 7.11038 4.71967 6.96972C4.86032 6.82907 5.05109 6.75005 5.25 6.75005H6.75V5.25005C6.75 5.05114 6.82902 4.86038 6.96967 4.71972C7.11032 4.57907 7.30109 4.50005 7.5 4.50005C7.69891 4.50005 7.88968 4.57907 8.03033 4.71972C8.17098 4.86038 8.25 5.05114 8.25 5.25005V6.75005H9.75C9.94891 6.75005 10.1397 6.82907 10.2803 6.96972C10.421 7.11038 10.5 7.30114 10.5 7.50005C10.5 7.69897 10.421 7.88973 10.2803 8.03038C10.1397 8.17104 9.94891 8.25005 9.75 8.25005ZM13.6875 8.43755C13.5021 8.43755 13.3208 8.38257 13.1667 8.27956C13.0125 8.17654 12.8923 8.03013 12.8214 7.85882C12.7504 7.68751 12.7318 7.49901 12.768 7.31716C12.8042 7.1353 12.8935 6.96825 13.0246 6.83714C13.1557 6.70603 13.3227 6.61674 13.5046 6.58057C13.6865 6.54439 13.875 6.56296 14.0463 6.63392C14.2176 6.70487 14.364 6.82504 14.467 6.97921C14.57 7.13338 14.625 7.31463 14.625 7.50005C14.625 7.74869 14.5262 7.98715 14.3504 8.16297C14.1746 8.33878 13.9361 8.43755 13.6875 8.43755ZM15.75 10.5001C15.5645 10.5001 15.3831 10.445 15.2289 10.3419C15.0747 10.2388 14.9545 10.0922 14.8836 9.92078C14.8128 9.74933 14.7943 9.56071 14.8307 9.37879C14.8671 9.19687 14.9566 9.02983 15.0879 8.89881C15.2193 8.76779 15.3865 8.67869 15.5685 8.64278C15.7506 8.60687 15.9391 8.62577 16.1104 8.69709C16.2817 8.76841 16.4279 8.88894 16.5306 9.04341C16.6334 9.19789 16.688 9.37938 16.6875 9.5649C16.6869 9.81313 16.5878 10.051 16.4121 10.2263C16.2363 10.4016 15.9982 10.5001 15.75 10.5001ZM15.75 6.37505C15.5646 6.37505 15.3833 6.32007 15.2292 6.21706C15.075 6.11404 14.9548 5.96763 14.8839 5.79632C14.8129 5.62501 14.7943 5.43651 14.8305 5.25466C14.8667 5.0728 14.956 4.90575 15.0871 4.77464C15.2182 4.64353 15.3852 4.55424 15.5671 4.51807C15.749 4.48189 15.9375 4.50046 16.1088 4.57142C16.2801 4.64237 16.4265 4.76254 16.5295 4.91671C16.6325 5.07088 16.6875 5.25213 16.6875 5.43755C16.6875 5.68619 16.5887 5.92465 16.4129 6.10047C16.2371 6.27628 15.9986 6.37505 15.75 6.37505ZM17.8125 8.43755C17.6271 8.43755 17.4458 8.38257 17.2917 8.27956C17.1375 8.17654 17.0173 8.03013 16.9464 7.85882C16.8754 7.68751 16.8568 7.49901 16.893 7.31716C16.9292 7.1353 17.0185 6.96825 17.1496 6.83714C17.2807 6.70603 17.4477 6.61674 17.6296 6.58057C17.8115 6.54439 18 6.56296 18.1713 6.63392C18.3426 6.70487 18.489 6.82504 18.592 6.97921C18.695 7.13338 18.75 7.31463 18.75 7.50005C18.75 7.74869 18.6512 7.98715 18.4754 8.16297C18.2996 8.33878 18.0611 8.43755 17.8125 8.43755Z" fill="white"/>
</svg>
